<?xml version="1.0" encoding="utf-8" standalone="no"?>
<!-- Generator: DataGraph - https://www.visualdatatools.com/DataGraph/index.html  --><!DOCTYPE svg PUBLIC "-//W3C//DTD SVG 1.1//EN" "http://www.w3.org/Graphics/SVG/1.1/DTD/svg11.dtd">
<svg width="563" height="402" version="1.1" xmlns="http://www.w3.org/2000/svg" xmlns:xlink="http://www.w3.org/1999/xlink">
<g>
  <!-- Background -->
  <g id="Background">
    <defs>
      <clipPath id="clipPath">
        <rect x="74.5" y="18.5" width="473" height="339"/>
      </clipPath>
    </defs>
    <!-- Grid -->
    <g id="Grid" clip-path="url(#clipPath)">
      <path d="M 74.5 322.541 L 547.5 322.541 M 74.5 271.867 L 547.5 271.867 M 74.5 221.194 L 547.5 221.194 
               M 74.5 170.52 L 547.5 170.52 M 74.5 119.847 L 547.5 119.847 M 74.5 69.1734 L 547.5 69.1734 "
        stroke="black" stroke-dasharray="0.00997506,3.99002" stroke-linecap="round" fill="none" stroke-width="0.5"/>
    </g>
  </g>
  <!-- Commands -->
  <g id="Commands">
    <!-- R selection vs size -->
    <g id="R_selection_vs_size">
      <defs>
        <clipPath id="clipPath2">
          <rect x="74.5" y="18.5" width="473" height="339"/>
        </clipPath>
      </defs>
      <g clip-path="url(#clipPath2)">
        <path d="M 129.855 286.258 L 133.524 287.566 L 137.08 288.02 L 140.979 287.121 L 144.665 293.161 
                 L 148.342 288.956 L 152.135 285.024 L 155.822 294.971 L 159.651 280.033 L 163.307 290.958 
                 L 167.108 277.619 L 170.784 275.968 L 174.577 292.032 L 178.264 275.444 L 182.029 289.44 
                 L 185.749 292.589 L 189.447 282.387 L 193.181 274.932 L 196.938 278.494 L 200.67 285.839 
                 L 204.407 281.689 L 208.134 270.173 L 211.838 276.778 L 215.577 273.702 L 219.299 279.717 
                 L 223.04 265.757 L 226.768 281.011 L 230.49 271.217 L 234.216 269.77 L 237.951 278.494 
                 L 241.68 268.412 L 245.409 268.412 L 249.138 249.525 L 252.86 254.716 L 256.588 254.119 
                 L 260.319 254.919 L 264.046 250.839 L 267.774 244.172 L 271.503 250.42 L 275.23 246.546 
                 L 278.959 236.983 L 282.686 244.11 L 286.414 246.269 L 290.141 227.82 L 293.868 229.169 
                 L 297.596 230.844 L 301.324 237.857 L 305.052 219.746 L 308.779 226.946 L 312.506 233.526 
                 L 316.234 206.689 L 319.962 208.332 L 323.69 203.653 L 327.418 208.124 L 331.145 201.312 
                 L 334.873 201.699 L 338.6 194.301 L 342.328 210.699 L 346.056 196.118 L 349.783 210.307 
                 L 353.511 206.861 L 357.238 168.234 L 360.966 175.481 L 364.694 178.862 L 368.421 191.169 
                 L 372.149 185.889 L 375.877 179.439 L 379.604 156.361 L 383.332 162.386 L 387.059 170.299 
                 L 390.787 166.349 L 394.515 153.681 L 398.242 144.148 L 401.97 164.529 L 405.697 150.068 
                 L 409.425 156.549 L 413.153 147.116 L 416.88 134.133 L 420.608 135.934 L 424.335 147.529 
                 L 428.063 141.817 L 431.791 142.632 L 435.518 130.567 L 439.246 135.004 L 442.974 129.674 
                 L 446.701 130.987 L 450.429 129.603 L 454.156 120.836 L 457.884 114.421 L 461.612 114.871 
                 L 465.339 115.731 L 469.067 100.766 L 472.794 116.723 L 476.522 94.2937 L 480.25 98.6739 
                 L 483.977 107.324 L 487.705 102.067 L 491.432 86.6182 L 495.16 100.32 L 498.888 95.0741 "
          stroke="rgb(228,28,28)" fill="none" stroke-width="0.5"/>
      </g>
    </g>
    <defs>
      <clipPath id="clipPath3">
        <rect x="74.5" y="18.5" width="473" height="339"/>
      </clipPath>
    </defs>
    <!-- Fit of R selection vs size -->
    <g id="Fit_of_R_selection_vs_size" clip-path="url(#clipPath3)">
      <path d="M 129.855 318.201 L 498.888 100.878 "
        stroke="rgb(228,26,28)" stroke-dasharray="8,2,4,2" fill="none" stroke-width="0.5"/>
    </g>
    <!-- D selection vs size -->
    <g id="D_selection_vs_size">
      <defs>
        <clipPath id="clipPath4">
          <rect x="74.5" y="18.5" width="473" height="339"/>
        </clipPath>
      </defs>
      <g clip-path="url(#clipPath4)">
        <path d="M 129.855 288.956 L 133.524 286.258 L 137.08 283.479 L 140.979 285.839 L 144.665 285.839 
                 L 148.342 282.387 L 152.135 281.689 L 155.822 280.681 L 159.651 279.097 L 163.307 268.791 
                 L 167.108 265.757 L 170.784 275.444 L 174.577 271.648 L 178.264 271.648 L 182.029 270.173 
                 L 185.749 268.412 L 189.447 268.601 L 193.181 254.021 L 196.938 264.462 L 200.67 261.94 
                 L 204.407 260.98 L 208.134 255.435 L 211.838 244.172 L 215.577 251.702 L 219.299 249.927 
                 L 223.04 244.806 L 226.768 242.314 L 230.49 241.58 L 234.216 227.613 L 237.951 236.669 
                 L 241.68 230.205 L 245.409 232.072 L 249.138 227.85 L 252.86 225.005 L 256.588 222.415 
                 L 260.319 217.181 L 264.046 219.036 L 267.774 215.556 L 271.503 212.971 L 275.23 210.173 
                 L 278.959 208.678 L 282.686 206.508 L 286.414 202.513 L 290.141 200.853 L 293.868 196.076 
                 L 297.596 191.647 L 301.324 192.943 L 305.052 188.349 L 308.779 185.291 L 312.506 180.657 
                 L 316.234 182.285 L 319.962 178.16 L 323.69 178.591 L 327.418 175.772 L 331.145 172.528 
                 L 338.6 167.54 L 342.328 164.743 L 346.056 161.629 L 349.783 159.159 L 353.511 157.662 
                 L 357.238 150.566 L 360.966 150.358 L 364.694 146.363 L 368.421 144.941 L 375.877 141.204 
                 L 379.604 137.187 L 387.059 133.845 L 390.787 124.303 L 394.515 128.326 L 398.242 125.927 
                 L 401.97 122.127 L 405.697 121.035 L 413.153 112.545 L 416.88 109.946 L 420.608 110.842 
                 L 424.335 108.148 L 428.063 105.613 L 431.791 103.893 L 435.518 99.3488 L 439.246 98.3118 
                 L 442.974 94.7824 L 446.701 92.9281 L 450.429 89.6919 L 454.156 87.726 L 457.884 84.2515 
                 L 461.612 82.365 L 465.339 79.6652 L 469.067 77.8163 L 472.794 73.4977 L 476.522 71.0877 
                 L 480.25 69.1852 L 483.977 67.0633 L 487.705 62.4844 L 491.432 60.1923 L 495.16 58.8513 
                 L 498.888 56.2041 "
          stroke="rgb(55,126,184)" fill="none" stroke-width="0.5"/>
      </g>
    </g>
    <defs>
      <clipPath id="clipPath5">
        <rect x="74.5" y="18.5" width="473" height="339"/>
      </clipPath>
    </defs>
    <!-- Fit of D selection vs size -->
    <g id="Fit_of_D_selection_vs_size" clip-path="url(#clipPath5)">
      <path d="M 129.855 301.721 L 498.888 59.5072 "
        stroke="rgb(55,126,184)" stroke-dasharray="8,2,4,2" fill="none" stroke-width="0.5"/>
    </g>
    <!-- Legend -->
    <g id="Legend">
      <rect x="77.5" y="32" width="200" height="61.2" stroke="black" fill="none" stroke-width="0.5"/>
      <defs>
        <clipPath id="clipPath6">
          <rect x="77.5" y="32" width="200" height="61.2"/>
        </clipPath>
      </defs>
      <g clip-path="url(#clipPath6)">
        <path d="M 82.5 40.5 L 96.5 40.5 "
          stroke="rgb(228,28,28)" fill="none" stroke-width="0.5"/>
        <g font-family="Helvetica" font-size="12" fill="black">
          <text x="101.5" y="45.3037">R selection vs size</text>
        </g>
        <defs>
          <clipPath id="clipPath7">
            <rect x="82.5" y="49.28" width="14" height="12.24"/>
          </clipPath>
        </defs>
        <g clip-path="url(#clipPath7)">
          <path d="M 82.5 55.5 L 96.5 55.5 "
            stroke="rgb(228,26,28)" stroke-dasharray="8,2,4,2" stroke-dashoffset="5" fill="none" stroke-width="0.5"/>
        </g>
        <g font-family="Helvetica" font-size="12" fill="black">
          <text x="101.5" y="59.7037">Fit of R selection vs size</text>
        </g>
        <path d="M 82.5 69.5 L 96.5 69.5 "
          stroke="rgb(55,126,184)" fill="none" stroke-width="0.5"/>
        <g font-family="Helvetica" font-size="12" fill="black">
          <text x="101.5" y="74.1037">D selection vs size</text>
        </g>
        <defs>
          <clipPath id="clipPath8">
            <rect x="82.5" y="78.08" width="14" height="12.24"/>
          </clipPath>
        </defs>
        <g clip-path="url(#clipPath8)">
          <path d="M 82.5 84.5 L 96.5 84.5 "
            stroke="rgb(55,126,184)" stroke-dasharray="8,2,4,2" stroke-dashoffset="5" fill="none" stroke-width="0.5"/>
        </g>
        <g font-family="Helvetica" font-size="12" fill="black">
          <text x="101.5" y="88.5037">Fit of D selection vs size</text>
        </g>
      </g>
    </g>
  </g>
  <!-- Foreground -->
  <g id="Foreground">
    <!-- Y Axis -->
    <g id="Y_Axis">
      <g transform="translate(14.0188,188) rotate(-90) translate(-14.0188,-188)" font-family="Helvetica" font-size="12" fill="black">
        <text x="-9.98711" y="188">time cost</text>
      </g>
      <!-- Y Labels -->
      <g id="Y_Labels">
        <g font-family="Helvetica" font-size="12" fill="black">
          <text x="40.4911" y="326.844">10</text>
          <text x="53.8388" y="321.51" font-size="9">−6</text>
        </g>
        <g font-family="Helvetica" font-size="12" fill="black">
          <text x="40.4911" y="276.171">10</text>
          <text x="53.8388" y="270.837" font-size="9">−5</text>
        </g>
        <g font-family="Helvetica" font-size="12" fill="black">
          <text x="40.4911" y="225.497">10</text>
          <text x="53.8388" y="220.163" font-size="9">−4</text>
        </g>
        <g font-family="Helvetica" font-size="12" fill="black">
          <text x="40.4911" y="174.824">10</text>
          <text x="53.8388" y="169.49" font-size="9">−3</text>
        </g>
        <g font-family="Helvetica" font-size="12" fill="black">
          <text x="40.4911" y="124.151">10</text>
          <text x="53.8388" y="118.816" font-size="9">−2</text>
        </g>
        <g font-family="Helvetica" font-size="12" fill="black">
          <text x="40.4911" y="73.4771">10</text>
          <text x="53.8388" y="68.1431" font-size="9">−1</text>
        </g>
        <g font-family="Helvetica" font-size="12" fill="black">
          <text x="57.4262" y="22.8037">1</text>
        </g>
      </g>
      <path d="M 70.5 349.037 L 74.5 349.037 M 70.5 342.706 L 74.5 342.706 M 70.5 337.795 L 74.5 337.795 
               M 70.5 333.782 L 74.5 333.782 M 70.5 330.39 L 74.5 330.39 M 70.5 327.451 L 74.5 327.451 
               M 70.5 324.859 L 74.5 324.859 M 66.5 322.541 L 74.5 322.541 M 70.5 307.286 L 74.5 307.286 
               M 70.5 298.363 L 74.5 298.363 M 70.5 292.032 L 74.5 292.032 M 70.5 287.121 L 74.5 287.121 
               M 70.5 283.109 L 74.5 283.109 M 70.5 279.717 L 74.5 279.717 M 70.5 276.778 L 74.5 276.778 
               M 70.5 274.186 L 74.5 274.186 M 66.5 271.867 L 74.5 271.867 M 70.5 256.613 L 74.5 256.613 
               M 70.5 247.69 L 74.5 247.69 M 70.5 241.359 L 74.5 241.359 M 70.5 236.448 L 74.5 236.448 
               M 70.5 232.436 L 74.5 232.436 M 70.5 229.043 L 74.5 229.043 M 70.5 226.104 L 74.5 226.104 
               M 70.5 223.512 L 74.5 223.512 M 66.5 221.194 L 74.5 221.194 M 70.5 205.939 L 74.5 205.939 
               M 70.5 197.016 L 74.5 197.016 M 70.5 190.685 L 74.5 190.685 M 70.5 185.775 L 74.5 185.775 
               M 70.5 181.762 L 74.5 181.762 M 70.5 178.37 L 74.5 178.37 M 70.5 175.431 L 74.5 175.431 
               M 70.5 172.839 L 74.5 172.839 M 66.5 170.52 L 74.5 170.52 M 70.5 155.266 L 74.5 155.266 
               M 70.5 146.343 L 74.5 146.343 M 70.5 140.012 L 74.5 140.012 M 70.5 135.101 L 74.5 135.101 
               M 70.5 131.089 L 74.5 131.089 M 70.5 127.696 L 74.5 127.696 M 70.5 124.758 L 74.5 124.758 
               M 70.5 122.166 L 74.5 122.166 M 66.5 119.847 L 74.5 119.847 M 70.5 104.593 L 74.5 104.593 
               M 70.5 95.6695 L 74.5 95.6695 M 70.5 89.3384 L 74.5 89.3384 M 70.5 84.4276 L 74.5 84.4276 
               M 70.5 80.4153 L 74.5 80.4153 M 70.5 77.0228 L 74.5 77.0228 M 70.5 74.0842 L 74.5 74.0842 
               M 70.5 71.4921 L 74.5 71.4921 M 66.5 69.1734 L 74.5 69.1734 M 70.5 53.9192 L 74.5 53.9192 
               M 70.5 44.9961 L 74.5 44.9961 M 70.5 38.665 L 74.5 38.665 M 70.5 33.7542 L 74.5 33.7542 
               M 70.5 29.7418 L 74.5 29.7418 M 70.5 26.3494 L 74.5 26.3494 M 70.5 23.4108 L 74.5 23.4108 
               M 70.5 20.8187 L 74.5 20.8187 M 66.5 18.5 L 74.5 18.5 "
        stroke="black" fill="none" stroke-width="0.5"/>
    </g>
    <!-- X Axis -->
    <g id="X_Axis">
      <g font-family="Helvetica" font-size="12" fill="black">
        <text x="270.646" y="395">size of integers</text>
      </g>
      <g>
        <g font-family="Helvetica" font-size="12" fill="black">
          <text x="120.678" y="376.69">10</text>
          <text x="134.026" y="371.356" font-size="9">2</text>
        </g>
        <g font-family="Helvetica" font-size="12" fill="black">
          <text x="195.23" y="376.69">10</text>
          <text x="208.578" y="371.356" font-size="9">3</text>
        </g>
        <g font-family="Helvetica" font-size="12" fill="black">
          <text x="269.783" y="376.69">10</text>
          <text x="283.13" y="371.356" font-size="9">4</text>
        </g>
        <g font-family="Helvetica" font-size="12" fill="black">
          <text x="344.335" y="376.69">10</text>
          <text x="357.682" y="371.356" font-size="9">5</text>
        </g>
        <g font-family="Helvetica" font-size="12" fill="black">
          <text x="418.887" y="376.69">10</text>
          <text x="432.234" y="371.356" font-size="9">6</text>
        </g>
        <g font-family="Helvetica" font-size="12" fill="black">
          <text x="493.439" y="376.69">10</text>
          <text x="506.786" y="371.356" font-size="9">7</text>
        </g>
      </g>
      <path d="M 129.855 365.5 L 129.855 357.5 M 204.407 365.5 L 204.407 357.5 M 278.959 365.5 L 278.959 357.5 
               M 353.511 365.5 L 353.511 357.5 M 428.063 365.5 L 428.063 357.5 M 502.615 365.5 L 502.615 357.5 
               M 77.7453 361.5 L 77.7453 357.5 M 90.8732 361.5 L 90.8732 357.5 M 100.188 361.5 L 100.188 357.5 
               M 107.412 361.5 L 107.412 357.5 M 113.316 361.5 L 113.316 357.5 M 118.307 361.5 L 118.307 357.5 
               M 122.63 361.5 L 122.63 357.5 M 126.444 361.5 L 126.444 357.5 M 152.297 361.5 L 152.297 357.5 
               M 165.425 361.5 L 165.425 357.5 M 174.74 361.5 L 174.74 357.5 M 181.965 361.5 L 181.965 357.5 
               M 187.868 361.5 L 187.868 357.5 M 192.859 361.5 L 192.859 357.5 M 197.182 361.5 L 197.182 357.5 
               M 200.996 361.5 L 200.996 357.5 M 226.849 361.5 L 226.849 357.5 M 239.977 361.5 L 239.977 357.5 
               M 249.292 361.5 L 249.292 357.5 M 256.517 361.5 L 256.517 357.5 M 262.42 361.5 L 262.42 357.5 
               M 267.411 361.5 L 267.411 357.5 M 271.734 361.5 L 271.734 357.5 M 275.548 361.5 L 275.548 357.5 
               M 301.401 361.5 L 301.401 357.5 M 314.529 361.5 L 314.529 357.5 M 323.844 361.5 L 323.844 357.5 
               M 331.069 361.5 L 331.069 357.5 M 336.972 361.5 L 336.972 357.5 M 341.963 361.5 L 341.963 357.5 
               M 346.286 361.5 L 346.286 357.5 M 350.1 361.5 L 350.1 357.5 M 375.953 361.5 L 375.953 357.5 
               M 389.081 361.5 L 389.081 357.5 M 398.396 361.5 L 398.396 357.5 M 405.621 361.5 L 405.621 357.5 
               M 411.524 361.5 L 411.524 357.5 M 416.515 361.5 L 416.515 357.5 M 420.838 361.5 L 420.838 357.5 
               M 424.652 361.5 L 424.652 357.5 M 450.506 361.5 L 450.506 357.5 M 463.634 361.5 L 463.634 357.5 
               M 472.948 361.5 L 472.948 357.5 M 480.173 361.5 L 480.173 357.5 M 486.076 361.5 L 486.076 357.5 
               M 491.067 361.5 L 491.067 357.5 M 495.39 361.5 L 495.39 357.5 M 499.204 361.5 L 499.204 357.5 
               M 525.058 361.5 L 525.058 357.5 M 538.186 361.5 L 538.186 357.5 M 547.5 361.5 L 547.5 357.5 "
        stroke="black" fill="none" stroke-width="0.5"/>
    </g>
    <g font-family="Helvetica" font-size="12" fill="black">
      <text x="239.97" y="14.0188">time vs size in large period</text>
    </g>
    <path d="M 547.5 357.5 L 547.5 18.5 L 74.5 18.5 L 74.5 357.5 L 547.5 357.5 z "
      stroke="black" stroke-linecap="square" fill="none" stroke-width="0.5"/>
  </g>
</g>
</svg>
